<mxfile host="app.diagrams.net" modified="2020-08-13T09:27:09.157Z" agent="5.0 (Windows NT 10.0; Win64; x64) AppleWebKit/537.36 (KHTML, like Gecko) Chrome/84.0.4147.105 Safari/537.36" etag="qLTHxvHFIYilC-NzJO5u" version="13.6.0" type="github">
  <diagram id="fcMf1Q1ALH48_bRgjCHv" name="Page-1">
    <mxGraphModel dx="1038" dy="548" grid="1" gridSize="10" guides="1" tooltips="1" connect="1" arrows="1" fold="1" page="1" pageScale="1" pageWidth="827" pageHeight="1169" math="0" shadow="0">
      <root>
        <mxCell id="0" />
        <mxCell id="1" parent="0" />
        <mxCell id="L5DwalBrorsTXMGHGpLV-8" value="" style="rounded=0;whiteSpace=wrap;html=1;fontSize=16;dashed=1;fontColor=#6600CC;" vertex="1" parent="1">
          <mxGeometry x="240" y="60" width="210" height="320" as="geometry" />
        </mxCell>
        <mxCell id="L5DwalBrorsTXMGHGpLV-1" value="Servlet" style="rounded=0;whiteSpace=wrap;html=1;fontSize=16;fillColor=#d5e8d4;strokeColor=#82b366;" vertex="1" parent="1">
          <mxGeometry x="270" y="100" width="150" height="60" as="geometry" />
        </mxCell>
        <mxCell id="L5DwalBrorsTXMGHGpLV-3" style="edgeStyle=orthogonalEdgeStyle;rounded=0;orthogonalLoop=1;jettySize=auto;html=1;exitX=0.5;exitY=0;exitDx=0;exitDy=0;entryX=0.5;entryY=1;entryDx=0;entryDy=0;fontSize=16;" edge="1" parent="1" source="L5DwalBrorsTXMGHGpLV-2" target="L5DwalBrorsTXMGHGpLV-1">
          <mxGeometry relative="1" as="geometry" />
        </mxCell>
        <mxCell id="L5DwalBrorsTXMGHGpLV-2" value="GenericServlet" style="rounded=0;whiteSpace=wrap;html=1;fontSize=16;fillColor=#dae8fc;strokeColor=#6c8ebf;" vertex="1" parent="1">
          <mxGeometry x="270" y="200" width="150" height="60" as="geometry" />
        </mxCell>
        <mxCell id="L5DwalBrorsTXMGHGpLV-5" style="edgeStyle=orthogonalEdgeStyle;rounded=0;orthogonalLoop=1;jettySize=auto;html=1;exitX=0.5;exitY=0;exitDx=0;exitDy=0;entryX=0.5;entryY=1;entryDx=0;entryDy=0;fontSize=16;" edge="1" parent="1" source="L5DwalBrorsTXMGHGpLV-4" target="L5DwalBrorsTXMGHGpLV-2">
          <mxGeometry relative="1" as="geometry" />
        </mxCell>
        <mxCell id="L5DwalBrorsTXMGHGpLV-4" value="HttpServlet" style="rounded=0;whiteSpace=wrap;html=1;fontSize=16;fillColor=#dae8fc;strokeColor=#6c8ebf;" vertex="1" parent="1">
          <mxGeometry x="270" y="300" width="150" height="60" as="geometry" />
        </mxCell>
        <mxCell id="L5DwalBrorsTXMGHGpLV-7" style="edgeStyle=orthogonalEdgeStyle;rounded=0;orthogonalLoop=1;jettySize=auto;html=1;exitX=0.5;exitY=0;exitDx=0;exitDy=0;entryX=0.5;entryY=1;entryDx=0;entryDy=0;fontSize=16;" edge="1" parent="1" source="L5DwalBrorsTXMGHGpLV-6" target="L5DwalBrorsTXMGHGpLV-4">
          <mxGeometry relative="1" as="geometry" />
        </mxCell>
        <mxCell id="L5DwalBrorsTXMGHGpLV-6" value="自定义Servlet" style="rounded=0;whiteSpace=wrap;html=1;fontSize=16;fillColor=#dae8fc;strokeColor=#6c8ebf;" vertex="1" parent="1">
          <mxGeometry x="270" y="400" width="150" height="60" as="geometry" />
        </mxCell>
        <mxCell id="L5DwalBrorsTXMGHGpLV-9" value="servlet-api.jar" style="text;html=1;align=center;verticalAlign=middle;resizable=0;points=[];autosize=1;fontSize=16;fontStyle=1" vertex="1" parent="1">
          <mxGeometry x="285" y="70" width="120" height="20" as="geometry" />
        </mxCell>
      </root>
    </mxGraphModel>
  </diagram>
</mxfile>
